<!DOCTYPE svg PUBLIC "-//W3C//DTD SVG 1.1//EN" "http://www.w3.org/Graphics/SVG/1.1/DTD/svg11.dtd">
<!-- Uploaded to: SVG Repo, www.svgrepo.com, Transformed by: SVG Repo Mixer Tools -->
<svg fill="#f4f5f9" height="800px" width="800px" version="1.1" id="Capa_1" xmlns="http://www.w3.org/2000/svg" xmlns:xlink="http://www.w3.org/1999/xlink" viewBox="0 0 59.004 59.004" xml:space="preserve" stroke="#f4f5f9">
<g id="SVGRepo_bgCarrier" stroke-width="0"/>
<g id="SVGRepo_tracerCarrier" stroke-linecap="round" stroke-linejoin="round"/>
<g id="SVGRepo_iconCarrier"> <g> <path d="M56.001,57.004l-1,0l0-2.36c0-3.534-1.845-6.748-4.826-8.64c2.982-1.892,4.827-5.105,4.827-8.639l0-2.36l1,0 c0.553,0,1-0.447,1-1c0-0.553-0.447-1-1-1l-1,0l-1,0l-14-0.001l-1,0l-1,0c-0.553,0-1,0.447-1,1c0,0.553,0.447,1,1,1l1,0l0,2.36 c0,3.534,1.845,6.748,4.826,8.64c-2.982,1.892-4.827,5.105-4.827,8.639l0,2.36l-1,0c-0.553,0-1,0.447-1,1s0.447,1,1,1l1,0l1,0 l14,0.001l1,0l1,0c0.553,0,1-0.447,1-1S56.554,57.005,56.001,57.004z M41.003,37.363l0-2.36l12,0.001l0,2.36 c0,3.319-2.034,6.298-5.198,7.639l-1.605,0C43.036,43.661,41.003,40.683,41.003,37.363z M41.001,54.643 c0-3.319,2.034-6.298,5.198-7.639l1.605,0c3.164,1.342,5.197,4.321,5.197,7.64l0,2.36l-12-0.001L41.001,54.643z"/> <path d="M54.006,5.004c0-0.552-0.448-1-1-1l-5,0l0-3c0-0.553-0.448-1-1-1l-7-0.001c-0.552,0-1,0.447-1,1l0,3l-22-0.002l0-3 c0-0.553-0.448-1-1-1L9.007,0c-0.552,0-1,0.447-1,1l0,3l-5,0c-0.552,0-1,0.448-1,1l-0.001,9l52,0.005L54.006,5.004z M15.006,5.001 l0,3l-5,0l0-3l0-3l5,0L15.006,5.001z M46.006,5.004l0,3l-5,0l0-3l0-3l5,0L46.006,5.004z"/> <path d="M36.003,37.363l0.001-7.36l-7-0.001l0.001-8l7,0.001l1,0l-0.001,8l2,0l0.001-8l8,0.001l-0.001,8l7,0.001l0.001-13 c0-0.553-0.448-1-1-1l-50-0.005c-0.552,0-1,0.447-1,1l-0.004,39c0,0.553,0.448,1,1,1l33,0.003l0-2.36 c0-3.247,1.2-6.279,3.263-8.639C37.202,43.642,36.003,40.61,36.003,37.363z M17.002,50.001l-8-0.001l0.001-8l8,0.001L17.002,50.001 z M17.003,40.001l-8-0.001l0.001-8l8,0.001L17.003,40.001z M17.004,30.001l-8-0.001l0.001-8l8,0.001L17.004,30.001z M27.002,50.002 l-7-0.001l-1,0l0.001-8l8,0.001L27.002,50.002z M27.003,40.002l-8-0.001l0.001-8l8,0.001L27.003,40.002z M27.004,30.002l-8-0.001 l0.001-8l1,0l7,0.001L27.004,30.002z"/> </g> </g>
</svg>